# xmcd
#
# Track frame offsets:
#	183
#	12860
#	30705
#	54820
#	76395
#	102648
#	127818
#	138450
#	154870
#	174173
#	188143
#	201883
#	222413
#	239973
#	262678
#	283690
#
# Disc length: 4077 seconds
#
# Revision: 0
# Processed by: cddbd v1.5.2PL0 Copyright (c) Steve Scherf et al.
# Submitted via: EasyCDDAExtractor 16.0.6.1
#
DISCID=dd0feb10
DTITLE=Άνευ ερμηνευτού - The Classic Experience 1.1
DYEAR=1988
DGENRE=Κλασική
TTITLE0=Arrival of the Queen of Sheba [Handel]
TTITLE1=Intermezzo from 'Karelia Suite' [Sibelius]
TTITLE2=Bolero [Ravel]
TTITLE3=Air [Bach]
TTITLE4=Adagio from 'Spartacus' [Khachaturian]
TTITLE5=Rhapsody in Blue [Gershwin]
TTITLE6=Dance of the Reed Flutes from 'The Nutcracker' [Tchaikovsky]
TTITLE7=Dance of the Sugar Plum Fairy from 'The Nutcracker' [Tchaikovsky]
TTITLE8=Morning from 'Peer Gynt' [Grieg]
TTITLE9=Spring from 'The Four Seasons' [Vivaldi]
TTITLE10=Rhapsody on a Theme of Paganini [Rachmaninov]
TTITLE11=Largo from Symphony No 9 in E Minor [Dvorak]
TTITLE12=Nimrod from 'Enigma' Variations [Elgar]
TTITLE13=Meditation from 'Thais' [Massenet]
TTITLE14=Fantasia on 'Greensleeves' [Vaughan Willliams]
TTITLE15=Canon [Pachelbel]
EXTD=YEAR: 1988\n
EXTT0=
EXTT1=
EXTT2=
EXTT3=
EXTT4=
EXTT5=
EXTT6=
EXTT7=
EXTT8=
EXTT9=
EXTT10=
EXTT11=
EXTT12=
EXTT13=
EXTT14=
EXTT15=
PLAYORDER=
